<?xml version="1.0" encoding="utf-8"?>
<!-- Generator: Adobe Illustrator 23.0.1, SVG Export Plug-In . SVG Version: 6.00 Build 0)  -->
<svg version="1.1" id="Ebene_1" xmlns="http://www.w3.org/2000/svg" xmlns:xlink="http://www.w3.org/1999/xlink" x="0px" y="0px"
	 viewBox="0 0 136 135.8" enable-background="new 0 0 136 135.8" xml:space="preserve">
<g id="XMLID_41_">
	<g>
		<g>
			<g>
				<defs>
					<rect id="SVGID_1_" y="-0.2" width="136.8" height="136"/>
				</defs>
				<clipPath id="SVGID_2_">
					<use xlink:href="#SVGID_1_"  overflow="visible"/>
				</clipPath>
				<path id="XMLID_49_" clip-path="url(#SVGID_2_)" fill="#4D4D4C" d="M0,47.6V136h136V42.7C113.7,53.2,88.6,59,62.2,59
					C40.2,59.1,19.2,55,0,47.6"/>
			</g>
		</g>
	</g>
	<g>
		<g>
			<g>
				<defs>
					<rect id="SVGID_3_" y="-0.2" width="136.8" height="136"/>
				</defs>
				<clipPath id="SVGID_4_">
					<use xlink:href="#SVGID_3_"  overflow="visible"/>
				</clipPath>
				<path id="XMLID_48_" clip-path="url(#SVGID_4_)" fill="#FFFFFF" d="M22.5,82.8h8.9c4.5,0,9.7,1.7,11.7,5.1
					c0.2,0.2,0.4,0.4,0.6,0.4s0.2-0.2,0.2-0.4c0-0.6-0.2-1.4-0.4-1.7l-1.4-4.5H14.9c-0.8,0-1,0-1,0.2s0.4,0.2,0.8,0.4
					c1.9,0.6,2.1,2.5,2.1,5.6v16.3c0,4.5-0.4,5.6-2.1,7.2c-0.4,0.2-1.4,0.6-1.4,0.8c0,0.2,0.4,0.2,1.4,0.2H44l2.1-7
					c0-0.2,0.2-0.2,0.2-0.4c0-0.2,0-0.2-0.2-0.2s-0.8,0.4-1.4,1c-3.1,2.9-8.5,5.2-12.6,5.2h-5.4c-3.3,0-4.5-0.8-4.5-4.3V96.6h7.4
					c3.3,0,7.4,0.2,8.7,3.7c0.2,0.4,0.2,0.6,0.4,0.6c0.2,0,0.2-0.2,0.2-1v-8c0-0.4,0-0.8-0.2-0.8s-0.2,0.2-0.4,0.4
					c-0.6,1.9-3.7,3.7-7.2,3.7h-8.9V82.8L22.5,82.8L22.5,82.8z"/>
			</g>
		</g>
	</g>
	<g>
		<g>
			<g>
				<defs>
					<rect id="SVGID_5_" y="-0.2" width="136.8" height="136"/>
				</defs>
				<clipPath id="SVGID_6_">
					<use xlink:href="#SVGID_5_"  overflow="visible"/>
				</clipPath>
				<path id="XMLID_45_" clip-path="url(#SVGID_6_)" fill="#FFFFFF" d="M81.4,96.9c0,7.2-2.9,15.2-11.7,15.2S58,104.1,58,96.9
					s2.9-15.2,11.7-15.2C78.3,81.8,81.4,89.8,81.4,96.9 M87.8,96.9c0-9.9-8.7-16.3-18.3-16.3c-9.5,0-18.3,6.4-18.3,16.3
					s8.7,16.3,18.3,16.3C79.1,113.3,87.8,106.9,87.8,96.9"/>
			</g>
		</g>
	</g>
	<g>
		<g>
			<g>
				<defs>
					<rect id="SVGID_7_" y="-0.2" width="136.8" height="136"/>
				</defs>
				<clipPath id="SVGID_8_">
					<use xlink:href="#SVGID_7_"  overflow="visible"/>
				</clipPath>
				<path id="XMLID_44_" clip-path="url(#SVGID_8_)" fill="#FFFFFF" d="M121.2,82.6c-3.9-1.6-8.2-2.1-12.2-2.1
					c-6.6,0-14.4,1.9-14.4,9.9c0,6.8,8.4,8,13.6,8.7c3.9,0.6,9.3,0.6,9.3,6c0,5.8-6,7-10.7,7c-4.5,0-10.7-2.9-11.3-7.8
					c0-0.4,0-0.6-0.4-0.6c-0.2,0-0.2,0.2-0.6,1l-1.6,5.6c5.2,1.9,8.4,2.9,14,2.9c7,0,15.7-2.5,15.7-11.1c0-3.1-1.4-7-9.9-8.2
					c-7.4-1-12.8-0.8-12.8-6.6c0-4.9,5.2-5.6,8.9-5.6c5.8,0,8.9,2.9,10.3,6.2c0,0.2,0.2,0.4,0.2,0.4c0.2,0,0.2-0.2,0.4-1L121.2,82.6
					z"/>
			</g>
		</g>
	</g>
	<g>
		<g>
			<g>
				<defs>
					<rect id="SVGID_9_" y="-0.2" width="136.8" height="136"/>
				</defs>
				<clipPath id="SVGID_10_">
					<use xlink:href="#SVGID_9_"  overflow="visible"/>
				</clipPath>
				<path id="XMLID_43_" clip-path="url(#SVGID_10_)" fill="#9E2B11" d="M0,0v41.6c16.5,5.2,34.2,8,52.5,8
					c30.3,0,58.9-7.8,83.7-21.2V0H0L0,0z"/>
			</g>
		</g>
	</g>
</g>
</svg>
